<?xml version="1.0" standalone="no"?>
<!DOCTYPE svg PUBLIC "-//W3C//DTD SVG 1.1//EN" "http://www.w3.org/Graphics/SVG/1.1/DTD/svg11.dtd">
<svg width="100%" height="100%" viewBox="0 0 220 79" version="1.1" xmlns="http://www.w3.org/2000/svg" xmlns:xlink="http://www.w3.org/1999/xlink" xml:space="preserve" style="fill-rule:evenodd;clip-rule:evenodd;stroke-linejoin:round;stroke-miterlimit:1.41421;">
    <g transform="matrix(0.999119,-4.92546e-32,-4.92546e-32,0.999119,3.94257e-07,4.76204)">
        <clipPath id="_clip1">
            <rect x="0" y="0.538" width="220.195" height="68.462"/>
        </clipPath>
        <g clip-path="url(#_clip1)">
            <clipPath id="_clip2">
                <path d="M64.885,68.109L48.302,68.109C52.771,51.695 57.221,35.349 61.76,18.679C60.288,18.679 59.068,18.783 57.875,18.652C56.348,18.483 55.733,19.081 55.358,20.556C53.017,29.762 50.579,38.943 48.061,48.558C47.774,47.806 47.6,47.412 47.471,47.004C45.599,41.136 45.09,35.128 45.25,28.979C45.447,21.437 45.297,13.885 45.297,6.337L45.297,3.708C49.859,3.708 54.255,3.675 58.652,3.723C60.731,3.744 62.807,3.919 64.885,4.025L64.885,68.109Z"/>
            </clipPath>
            <g clip-path="url(#_clip2)">
                <rect x="40.222" y="-1.303" width="29.663" height="74.412" style="fill:rgb(31,32,81);fill-rule:nonzero;"/>
            </g>
            <clipPath id="_clip3">
                <path d="M22.662,0.537L22.662,40.832C22.569,40.858 22.477,40.885 22.384,40.912C22.201,40.286 21.997,39.664 21.838,39.03C20.304,32.904 18.734,26.785 17.28,20.64C16.94,19.206 16.431,18.592 14.842,18.639C10.659,18.76 6.469,18.68 2.003,18.68L14.757,68.199L0.194,68.199C0.128,67.952 0,67.693 0,67.434C0.003,45.136 0.016,22.836 0.027,0.537L22.662,0.537Z"/>
            </clipPath>
            <g clip-path="url(#_clip3)">
                <rect x="-5" y="-4.463" width="32.662" height="77.662" style="fill:rgb(31,32,81);fill-rule:nonzero;"/>
            </g>
            <clipPath id="_clip4">
                <path d="M24.121,48.513L24.121,11.431L43.845,11.431L43.845,31.013C43.761,31.044 43.677,31.074 43.593,31.105C43.052,28.961 42.534,26.812 41.963,24.676C41.443,22.732 41.424,20.137 40.149,19.063C38.978,18.078 36.41,18.869 34.485,18.644C32.428,18.403 31.639,19.151 31.165,21.187C29.132,29.943 26.895,38.652 24.723,47.375C24.674,47.571 24.534,47.744 24.121,48.513Z"/>
            </clipPath>
            <g clip-path="url(#_clip4)">
                <rect x="19.121" y="6.431" width="29.724" height="47.083" style="fill:rgb(31,32,81);fill-rule:nonzero;"/>
            </g>
            <clipPath id="_clip5">
                <path d="M31.566,41.818C33.892,50.923 36.061,59.416 38.287,68.127L24.751,68.127C26.988,59.492 29.2,50.956 31.566,41.818Z"/>
            </clipPath>
            <g clip-path="url(#_clip5)">
                <rect x="19.751" y="36.818" width="23.536" height="36.309" style="fill:rgb(31,32,81);fill-rule:nonzero;"/>
            </g>
            <clipPath id="_clip6">
                <path d="M73.345,18.837L76.555,18.837L78.569,34.092L80.992,18.837L83.856,18.837L86.247,34.092L88.293,18.837L91.408,18.837L87.947,40.995L84.736,40.995L82.376,26.055L80.017,40.995L76.838,40.995L73.345,18.837Z"/>
            </clipPath>
            <g clip-path="url(#_clip6)">
                <rect x="68.345" y="13.837" width="28.063" height="32.157" style="fill:rgb(176,138,46);fill-rule:nonzero;"/>
            </g>
            <clipPath id="_clip7">
                <path d="M93.136,18.837L101.286,18.837L101.286,21.769L96.252,21.769L96.252,28.324L100.752,28.324L100.752,31.255L96.252,31.255L96.252,37.968L101.381,37.968L101.381,40.9L93.136,40.9L93.136,18.837Z"/>
            </clipPath>
            <g clip-path="url(#_clip7)">
                <rect x="88.136" y="13.837" width="18.245" height="32.062" style="fill:rgb(176,138,46);fill-rule:nonzero;"/>
            </g>
            <clipPath id="_clip8">
                <path d="M102.922,40.112L102.922,36.834C104.306,37.685 105.439,38.126 106.509,38.126C107.831,38.126 108.838,37.37 108.838,35.857L108.838,35.794C108.838,34.533 108.429,33.619 106.415,31.192C103.709,27.946 102.733,26.559 102.733,24.07L102.733,24.006C102.733,20.76 104.936,18.617 107.769,18.617C109.247,18.617 110.192,18.901 111.167,19.405L111.167,22.682C109.971,21.957 109.122,21.611 108.114,21.611C106.855,21.611 105.849,22.462 105.849,23.849L105.849,23.912C105.849,25.14 106.258,25.803 108.272,28.198C111.198,31.665 111.954,33.146 111.954,35.636L111.954,35.699C111.954,38.946 109.656,41.12 106.793,41.12C105.345,41.12 104.086,40.71 102.922,40.112Z"/>
            </clipPath>
            <g clip-path="url(#_clip8)">
                <rect x="97.733" y="13.617" width="19.22" height="32.503" style="fill:rgb(176,138,46);fill-rule:nonzero;"/>
            </g>
            <clipPath id="_clip9">
                <path d="M115.382,21.769L112.393,21.769L112.393,18.837L121.425,18.837L121.425,21.769L118.467,21.769L118.467,40.9L115.382,40.9L115.382,21.769Z"/>
            </clipPath>
            <g clip-path="url(#_clip9)">
                <rect x="107.393" y="13.837" width="19.032" height="32.062" style="fill:rgb(176,138,46);fill-rule:nonzero;"/>
            </g>
            <clipPath id="_clip10">
                <path d="M123.217,18.837L126.395,18.837L129.511,28.198L132.627,18.837L135.805,18.837L135.805,40.9L132.816,40.9L132.816,25.866L129.543,35.573L129.448,35.573L126.175,25.866L126.175,40.9L123.217,40.9L123.217,18.837Z"/>
            </clipPath>
            <g clip-path="url(#_clip10)">
                <rect x="118.217" y="13.837" width="22.588" height="32.062" style="fill:rgb(176,138,46);fill-rule:nonzero;"/>
            </g>
            <clipPath id="_clip11">
                <path d="M146.188,30.342L146.188,29.396C146.188,23.692 145.149,21.39 143.67,21.39C142.191,21.39 141.153,23.692 141.153,29.396L141.153,30.342C141.153,36.046 142.191,38.346 143.67,38.346C145.149,38.346 146.188,36.046 146.188,30.342ZM138.006,30.342L138.006,29.396C138.006,21.958 140.335,18.554 143.67,18.554C147.007,18.554 149.335,21.958 149.335,29.396L149.335,30.342C149.335,37.779 147.007,41.183 143.67,41.183C140.335,41.183 138.006,37.779 138.006,30.342Z"/>
            </clipPath>
            <g clip-path="url(#_clip11)">
                <rect x="133.006" y="13.554" width="21.329" height="32.629" style="fill:rgb(176,138,46);fill-rule:nonzero;"/>
            </g>
            <clipPath id="_clip12">
                <path d="M155.186,30.058C157.263,30.058 158.679,28.797 158.679,25.961L158.679,25.771C158.679,22.745 157.169,21.737 155.092,21.737L154.651,21.737L154.651,30.058L155.186,30.058ZM151.536,18.837L155.124,18.837C159.026,18.837 161.795,21.012 161.795,25.708L161.795,25.929C161.795,28.86 160.567,30.783 158.837,31.823L162.172,40.9L158.837,40.9L155.879,32.831C155.753,32.831 155.595,32.862 155.469,32.862L154.651,32.862L154.651,40.9L151.536,40.9L151.536,18.837Z"/>
            </clipPath>
            <g clip-path="url(#_clip12)">
                <rect x="146.536" y="13.837" width="20.637" height="32.062" style="fill:rgb(176,138,46);fill-rule:nonzero;"/>
            </g>
            <clipPath id="_clip13">
                <path d="M163.901,18.837L172.052,18.837L172.052,21.769L167.017,21.769L167.017,28.324L171.517,28.324L171.517,31.255L167.017,31.255L167.017,37.968L172.146,37.968L172.146,40.9L163.901,40.9L163.901,18.837Z"/>
            </clipPath>
            <g clip-path="url(#_clip13)">
                <rect x="158.901" y="13.837" width="18.245" height="32.062" style="fill:rgb(176,138,46);fill-rule:nonzero;"/>
            </g>
            <clipPath id="_clip14">
                <path d="M174.222,18.837L177.337,18.837L177.337,37.968L181.838,37.968L181.838,40.9L174.222,40.9L174.222,18.837Z"/>
            </clipPath>
            <g clip-path="url(#_clip14)">
                <rect x="169.222" y="13.837" width="17.616" height="32.062" style="fill:rgb(176,138,46);fill-rule:nonzero;"/>
            </g>
            <clipPath id="_clip15">
                <path d="M189.893,33.178L188.288,24.322L186.683,33.178L189.893,33.178ZM186.683,18.775L189.987,18.775L194.361,40.899L191.246,40.899L190.364,35.983L186.211,35.983L185.33,40.899L182.308,40.899L186.683,18.775Z"/>
            </clipPath>
            <g clip-path="url(#_clip15)">
                <rect x="177.308" y="13.775" width="22.053" height="32.125" style="fill:rgb(176,138,46);fill-rule:nonzero;"/>
            </g>
            <clipPath id="_clip16">
                <path d="M195.996,18.837L198.954,18.837L203.737,32.201L203.737,18.837L206.759,18.837L206.759,40.9L203.958,40.9L199.017,27.032L199.017,40.9L195.996,40.9L195.996,18.837Z"/>
            </clipPath>
            <g clip-path="url(#_clip16)">
                <rect x="190.996" y="13.837" width="20.763" height="32.062" style="fill:rgb(176,138,46);fill-rule:nonzero;"/>
            </g>
            <clipPath id="_clip17">
                <path d="M212.988,38.063C215.254,38.063 217.048,35.952 217.048,30.215L217.048,29.522C217.048,23.785 215.222,21.674 212.957,21.674L212.516,21.674L212.516,38.063L212.988,38.063ZM209.4,18.837L212.705,18.837C217.363,18.837 220.194,22.43 220.194,29.522L220.194,30.215C220.194,37.307 217.363,40.9 212.705,40.9L209.4,40.9L209.4,18.837Z"/>
            </clipPath>
            <g clip-path="url(#_clip17)">
                <rect x="204.4" y="13.837" width="20.794" height="32.063" style="fill:rgb(176,138,46);fill-rule:nonzero;"/>
            </g>
            <clipPath id="_clip18">
                <path d="M76.775,65.848C79.009,65.848 80.488,64.651 80.488,62.508L80.488,62.381C80.488,60.175 79.072,58.946 76.838,58.946L76.46,58.946L76.46,65.848L76.775,65.848ZM76.775,56.236C78.947,56.236 80.268,55.006 80.268,52.8L80.268,52.737C80.268,50.594 78.915,49.522 76.901,49.522L76.46,49.522L76.46,56.236L76.775,56.236ZM73.345,46.655L76.523,46.655C80.173,46.655 83.32,48.388 83.32,52.233L83.32,52.359C83.32,55.322 81.622,56.739 79.891,57.465C81.967,58.19 83.604,59.639 83.604,62.508L83.604,62.728C83.604,66.542 80.677,68.717 76.46,68.717L73.345,68.717L73.345,46.655Z"/>
            </clipPath>
            <g clip-path="url(#_clip18)">
                <rect x="68.345" y="41.655" width="20.259" height="32.062" style="fill:rgb(176,138,46);fill-rule:nonzero;"/>
            </g>
            <clipPath id="_clip19">
                <path d="M85.49,62.508L85.49,46.655L88.574,46.655L88.574,62.791C88.574,65.092 89.455,66.131 90.746,66.131C92.067,66.131 92.948,65.092 92.948,62.791L92.948,46.655L96.001,46.655L96.001,62.508C96.001,66.857 93.83,69 90.746,69C87.661,69 85.49,66.857 85.49,62.508Z"/>
            </clipPath>
            <g clip-path="url(#_clip19)">
                <rect x="80.49" y="41.655" width="20.511" height="32.345" style="fill:rgb(176,138,46);fill-rule:nonzero;"/>
            </g>
            <g>
                <clipPath id="_clip20">
                    <rect x="98.706" y="46.654" width="3.084" height="22.062"/>
                </clipPath>
                <g clip-path="url(#_clip20)">
                    <rect x="93.706" y="41.654" width="13.084" height="32.062" style="fill:rgb(176,138,46);fill-rule:nonzero;"/>
                </g>
                <clipPath id="_clip21">
                    <path d="M104.557,46.654L107.673,46.654L107.673,65.785L112.173,65.785L112.173,68.716L104.557,68.716L104.557,46.654Z"/>
                </clipPath>
                <g clip-path="url(#_clip21)">
                    <rect x="99.557" y="41.654" width="17.616" height="32.062" style="fill:rgb(176,138,46);fill-rule:nonzero;"/>
                </g>
                <clipPath id="_clip22">
                    <path d="M117.427,65.88C119.693,65.88 121.487,63.769 121.487,58.032L121.487,57.339C121.487,51.602 119.662,49.491 117.396,49.491L116.955,49.491L116.955,65.88L117.427,65.88ZM113.84,46.654L117.145,46.654C121.802,46.654 124.634,50.247 124.634,57.339L124.634,58.032C124.634,65.124 121.802,68.717 117.145,68.717L113.84,68.717L113.84,46.654Z"/>
                </clipPath>
                <g clip-path="url(#_clip22)">
                    <rect x="108.84" y="41.654" width="20.794" height="32.063" style="fill:rgb(176,138,46);fill-rule:nonzero;"/>
                </g>
                <clipPath id="_clip23">
                    <path d="M126.835,46.654L134.985,46.654L134.985,49.585L129.95,49.585L129.95,56.141L134.451,56.141L134.451,59.072L129.95,59.072L129.95,65.785L135.08,65.785L135.08,68.716L126.835,68.716L126.835,46.654Z"/>
                </clipPath>
                <g clip-path="url(#_clip23)">
                    <rect x="121.835" y="41.654" width="18.245" height="32.062" style="fill:rgb(176,138,46);fill-rule:nonzero;"/>
                </g>
                <clipPath id="_clip24">
                    <path d="M140.806,57.874C142.883,57.874 144.299,56.614 144.299,53.777L144.299,53.588C144.299,50.562 142.789,49.554 140.712,49.554L140.271,49.554L140.271,57.874L140.806,57.874ZM137.156,46.654L140.743,46.654C144.645,46.654 147.414,48.829 147.414,53.525L147.414,53.746C147.414,56.677 146.187,58.599 144.457,59.64L147.792,68.716L144.457,68.716L141.499,60.648C141.372,60.648 141.215,60.679 141.089,60.679L140.271,60.679L140.271,68.716L137.156,68.716L137.156,46.654Z"/>
                </clipPath>
                <g clip-path="url(#_clip24)">
                    <rect x="132.156" y="41.654" width="20.637" height="32.062" style="fill:rgb(176,138,46);fill-rule:nonzero;"/>
                </g>
                <clipPath id="_clip25">
                    <path d="M148.986,67.928L148.986,64.65C150.37,65.502 151.503,65.943 152.573,65.943C153.896,65.943 154.902,65.186 154.902,63.674L154.902,63.611C154.902,62.35 154.493,61.436 152.479,59.009C149.773,55.763 148.797,54.376 148.797,51.886L148.797,51.823C148.797,48.577 151,46.434 153.833,46.434C155.311,46.434 156.256,46.718 157.231,47.222L157.231,50.499C156.035,49.774 155.186,49.427 154.178,49.427C152.919,49.427 151.913,50.279 151.913,51.666L151.913,51.729C151.913,52.957 152.322,53.619 154.336,56.015C157.262,59.482 158.018,60.963 158.018,63.453L158.018,63.516C158.018,66.763 155.72,68.937 152.857,68.937C151.409,68.937 150.15,68.527 148.986,67.928Z"/>
                </clipPath>
                <g clip-path="url(#_clip25)">
                    <rect x="143.797" y="41.434" width="19.22" height="32.503" style="fill:rgb(176,138,46);fill-rule:nonzero;"/>
                </g>
            </g>
        </g>
    </g>
</svg>
